<svg width="40" height="40" viewBox="0 0 40 40" fill="none" xmlns="http://www.w3.org/2000/svg">
<circle cx="20" cy="20" r="20" fill="#445053"/>
<path d="M20 14.8738C18.9861 14.8738 17.9948 15.1746 17.1518 15.738C16.3087 16.3015 15.6516 17.1024 15.2635 18.0394C14.8755 18.9764 14.774 20.0075 14.9718 21.0022C15.1696 21.9969 15.6579 22.9107 16.3749 23.6278C17.0919 24.345 18.0054 24.8334 18.9999 25.0312C19.9944 25.2291 21.0252 25.1275 21.962 24.7394C22.8988 24.3513 23.6995 23.694 24.2628 22.8507C24.8261 22.0074 25.1268 21.016 25.1268 20.0018C25.1279 19.3281 24.9961 18.6608 24.7388 18.0381C24.4815 17.4154 24.1039 16.8497 23.6277 16.3733C23.1514 15.8969 22.5858 15.5192 21.9633 15.2619C21.3408 15.0046 20.6736 14.8727 20 14.8738ZM20 23.3356C19.3409 23.3351 18.6968 23.1392 18.149 22.7726C17.6012 22.406 17.1744 21.8851 16.9224 21.2759C16.6705 20.6667 16.6049 19.9965 16.7338 19.3499C16.8626 18.7034 17.1803 18.1096 17.6465 17.6436C18.1127 17.1776 18.7066 16.8603 19.3531 16.7319C19.9995 16.6035 20.6696 16.6696 21.2785 16.922C21.8873 17.1744 22.4077 17.6017 22.7739 18.1499C23.14 18.6981 23.3354 19.3425 23.3354 20.0018C23.3334 20.8855 22.9812 21.7324 22.356 22.3569C21.7308 22.9813 20.8836 23.3324 20 23.3332V23.3356ZM26.5343 14.6621C26.5343 14.8987 26.4642 15.13 26.3328 15.3267C26.2013 15.5234 26.0146 15.6767 25.7961 15.7672C25.5776 15.8577 25.3371 15.8814 25.1051 15.8353C24.8732 15.7891 24.6601 15.6752 24.4928 15.5079C24.3256 15.3406 24.2117 15.1275 24.1656 14.8955C24.1194 14.6635 24.1431 14.423 24.2336 14.2044C24.3241 13.9858 24.4774 13.799 24.6741 13.6676C24.8707 13.5362 25.1019 13.466 25.3384 13.466C25.4956 13.4655 25.6513 13.4961 25.7966 13.5561C25.9419 13.616 26.0739 13.7041 26.1851 13.8153C26.2962 13.9265 26.3843 14.0585 26.4442 14.2038C26.5042 14.3492 26.5348 14.5049 26.5343 14.6621ZM29.9323 15.8762C29.9652 14.3213 29.3851 12.816 28.3173 11.6855C27.1849 10.6211 25.6814 10.0414 24.1277 10.0702C22.477 9.9766 17.5285 9.9766 15.8778 10.0702C14.3246 10.0391 12.8209 10.6169 11.6881 11.6802C10.5119 12.8501 10.1507 14.2692 10.0702 15.8714C9.9766 17.5225 9.9766 22.4722 10.0702 24.1233C10.0372 25.6781 10.6173 27.1834 11.6851 28.3139C12.8177 29.3781 14.321 29.9579 15.8748 29.9298C17.5255 30.0234 22.474 30.0234 24.1247 29.9298C25.6792 29.9628 27.1842 29.3825 28.3144 28.3145C29.3786 27.1818 29.9581 25.678 29.9293 24.1238C30.0235 22.4722 30.0235 17.5272 29.9299 15.8756L29.9323 15.8762ZM27.7993 25.8936C27.6296 26.3238 27.3734 26.7145 27.0464 27.0415C26.7195 27.3685 26.3289 27.6248 25.8988 27.7945C24.5825 28.3169 21.4594 28.1964 20.0048 28.1964C18.5502 28.1964 15.4223 28.3127 14.1108 27.7945C13.6807 27.6248 13.2901 27.3685 12.9632 27.0415C12.6362 26.7145 12.38 26.3238 12.2103 25.8936C11.6881 24.577 11.8085 21.4531 11.8085 19.9982C11.8085 18.5433 11.6923 15.4146 12.2103 14.1028C12.38 13.6726 12.6362 13.2819 12.9632 12.9549C13.2901 12.6279 13.6807 12.3716 14.1108 12.2019C15.4271 11.6796 18.5502 11.8 20.0048 11.8C21.4594 11.8 24.5873 11.6837 25.8988 12.2019C26.3289 12.3716 26.7195 12.6279 27.0464 12.9549C27.3734 13.2819 27.6296 13.6726 27.7993 14.1028C28.3215 15.4194 28.2011 18.5433 28.2011 19.9982C28.2011 21.4531 28.3191 24.583 27.7969 25.8948L27.7993 25.8936Z" fill="#FFFEFD"/>
</svg>
