<svg width="40" height="40" viewBox="0 0 40 40" fill="none" xmlns="http://www.w3.org/2000/svg">
<circle cx="20" cy="20" r="20" fill="#445053"/>
<path d="M15.0291 28H11.2973V15.9823H15.0291V28ZM13.1612 14.343C11.9679 14.343 11 13.3546 11 12.1613C11 11.5881 11.2277 11.0383 11.633 10.633C12.0383 10.2277 12.588 10 13.1612 10C13.7344 10 14.2841 10.2277 14.6894 10.633C15.0947 11.0383 15.3224 11.5881 15.3224 12.1613C15.3224 13.3546 14.3541 14.343 13.1612 14.343ZM28.996 28H25.2722V22.1499C25.2722 20.7556 25.2441 18.9677 23.332 18.9677C21.3918 18.9677 21.0945 20.4824 21.0945 22.0494V28H17.3667V15.9823H20.9458V17.6216H20.998C21.4962 16.6774 22.7133 15.681 24.5289 15.681C28.3057 15.681 29 18.1681 29 21.3985V28H28.996Z" fill="#FFFEFD"/>
</svg>
