<svg width="40" height="40" viewBox="0 0 40 40" fill="none" xmlns="http://www.w3.org/2000/svg">
<circle cx="20" cy="20" r="20" fill="#445053"/>
<path d="M28.9442 15.2367C28.9569 15.4226 28.9569 15.6086 28.9569 15.7945C28.9569 21.4656 24.8326 28 17.2944 28C14.9721 28 12.8147 27.2961 11 26.0742C11.33 26.1141 11.6472 26.1273 11.9898 26.1273C13.9061 26.1273 15.6701 25.45 17.0787 24.2945C15.2767 24.2547 13.7665 23.0195 13.2462 21.3195C13.5 21.3593 13.7538 21.3859 14.0203 21.3859C14.3883 21.3859 14.7564 21.3328 15.099 21.2399C13.2208 20.8414 11.8122 19.1148 11.8122 17.0297V16.9766C12.3578 17.2953 12.9924 17.4945 13.6649 17.5211C12.5609 16.7507 11.8375 15.4359 11.8375 13.9484C11.8375 13.1515 12.0406 12.4211 12.3959 11.7836C14.4137 14.3867 17.4467 16.0867 20.8477 16.2726C20.7843 15.9539 20.7462 15.6219 20.7462 15.2898C20.7462 12.9258 22.5736 11 24.8452 11C26.0254 11 27.0914 11.518 27.8401 12.3547C28.7665 12.1688 29.6548 11.8101 30.4416 11.3188C30.137 12.3149 29.4898 13.1516 28.6396 13.6828C29.4645 13.5899 30.264 13.3508 31 13.0188C30.4417 13.8687 29.7437 14.6257 28.9442 15.2367V15.2367Z" fill="#FFFEFD"/>
</svg>
