<svg width="40" height="40" viewBox="0 0 40 40" fill="none" xmlns="http://www.w3.org/2000/svg">
<circle cx="20" cy="20" r="20" fill="#445053"/>
<path d="M29.5821 15.1905C29.3521 14.3283 28.6744 13.6492 27.8139 13.4188C26.2542 13 20 13 20 13C20 13 13.7459 13 12.1861 13.4188C11.3256 13.6493 10.6479 14.3283 10.4179 15.1905C10 16.7534 10 20.0141 10 20.0141C10 20.0141 10 23.2749 10.4179 24.8378C10.6479 25.7 11.3256 26.3508 12.1861 26.5812C13.7459 27 20 27 20 27C20 27 26.2541 27 27.8139 26.5812C28.6744 26.3508 29.3521 25.7 29.5821 24.8378C30 23.2749 30 20.0141 30 20.0141C30 20.0141 30 16.7534 29.5821 15.1905ZM17.9545 22.9747V17.0536L23.1818 20.0142L17.9545 22.9747Z" fill="#FFFEFD"/>
</svg>
