<svg width="600" height="294" viewBox="0 0 600 294" fill="none" xmlns="http://www.w3.org/2000/svg">
<mask id="mask0" mask-type="alpha" maskUnits="userSpaceOnUse" x="328" y="-15" width="284" height="225">
<line x1="329.753" y1="0.76059" x2="610.183" y2="0.76059" stroke="#ABE0DE" stroke-width="3" stroke-miterlimit="1.41421" stroke-linecap="round" stroke-linejoin="round" stroke-dasharray="0.1 8"/>
<line x1="329.753" y1="7.8909" x2="610.183" y2="7.8909" stroke="#ABE0DE" stroke-width="3" stroke-miterlimit="1.41421" stroke-linecap="round" stroke-linejoin="round" stroke-dasharray="0.1 8"/>
<line x1="329.753" y1="15.0212" x2="610.183" y2="15.0212" stroke="#ABE0DE" stroke-width="3" stroke-miterlimit="1.41421" stroke-linecap="round" stroke-linejoin="round" stroke-dasharray="0.1 8"/>
<line x1="329.753" y1="22.1515" x2="610.183" y2="22.1515" stroke="#ABE0DE" stroke-width="3" stroke-miterlimit="1.41421" stroke-linecap="round" stroke-linejoin="round" stroke-dasharray="0.1 8"/>
<line x1="329.753" y1="29.2818" x2="610.183" y2="29.2818" stroke="#ABE0DE" stroke-width="3" stroke-miterlimit="1.41421" stroke-linecap="round" stroke-linejoin="round" stroke-dasharray="0.1 8"/>
<line x1="329.753" y1="36.4122" x2="610.183" y2="36.4122" stroke="#ABE0DE" stroke-width="3" stroke-miterlimit="1.41421" stroke-linecap="round" stroke-linejoin="round" stroke-dasharray="0.1 8"/>
<line x1="329.753" y1="43.5425" x2="610.183" y2="43.5425" stroke="#ABE0DE" stroke-width="3" stroke-miterlimit="1.41421" stroke-linecap="round" stroke-linejoin="round" stroke-dasharray="0.1 8"/>
<line x1="329.753" y1="50.6728" x2="610.183" y2="50.6728" stroke="#ABE0DE" stroke-width="3" stroke-miterlimit="1.41421" stroke-linecap="round" stroke-linejoin="round" stroke-dasharray="0.1 8"/>
<line x1="329.753" y1="57.8031" x2="610.183" y2="57.8031" stroke="#ABE0DE" stroke-width="3" stroke-miterlimit="1.41421" stroke-linecap="round" stroke-linejoin="round" stroke-dasharray="0.1 8"/>
<line x1="329.753" y1="64.9334" x2="610.183" y2="64.9334" stroke="#ABE0DE" stroke-width="3" stroke-miterlimit="1.41421" stroke-linecap="round" stroke-linejoin="round" stroke-dasharray="0.1 8"/>
<line x1="329.753" y1="72.0637" x2="610.183" y2="72.0637" stroke="#ABE0DE" stroke-width="3" stroke-miterlimit="1.41421" stroke-linecap="round" stroke-linejoin="round" stroke-dasharray="0.1 8"/>
<line x1="329.753" y1="79.194" x2="610.183" y2="79.194" stroke="#ABE0DE" stroke-width="3" stroke-miterlimit="1.41421" stroke-linecap="round" stroke-linejoin="round" stroke-dasharray="0.1 8"/>
<line x1="329.753" y1="86.3243" x2="610.183" y2="86.3243" stroke="#ABE0DE" stroke-width="3" stroke-miterlimit="1.41421" stroke-linecap="round" stroke-linejoin="round" stroke-dasharray="0.1 8"/>
<line x1="329.753" y1="93.4546" x2="610.183" y2="93.4546" stroke="#ABE0DE" stroke-width="3" stroke-miterlimit="1.41421" stroke-linecap="round" stroke-linejoin="round" stroke-dasharray="0.1 8"/>
<line x1="329.753" y1="100.585" x2="610.183" y2="100.585" stroke="#ABE0DE" stroke-width="3" stroke-miterlimit="1.41421" stroke-linecap="round" stroke-linejoin="round" stroke-dasharray="0.1 8"/>
<line x1="329.753" y1="107.715" x2="610.183" y2="107.715" stroke="#ABE0DE" stroke-width="3" stroke-miterlimit="1.41421" stroke-linecap="round" stroke-linejoin="round" stroke-dasharray="0.1 8"/>
<line x1="329.753" y1="114.846" x2="610.183" y2="114.846" stroke="#ABE0DE" stroke-width="3" stroke-miterlimit="1.41421" stroke-linecap="round" stroke-linejoin="round" stroke-dasharray="0.1 8"/>
<line x1="329.753" y1="121.976" x2="610.183" y2="121.976" stroke="#ABE0DE" stroke-width="3" stroke-miterlimit="1.41421" stroke-linecap="round" stroke-linejoin="round" stroke-dasharray="0.1 8"/>
<line x1="329.753" y1="129.106" x2="610.183" y2="129.106" stroke="#ABE0DE" stroke-width="3" stroke-miterlimit="1.41421" stroke-linecap="round" stroke-linejoin="round" stroke-dasharray="0.1 8"/>
<line x1="329.753" y1="136.236" x2="610.183" y2="136.236" stroke="#ABE0DE" stroke-width="3" stroke-miterlimit="1.41421" stroke-linecap="round" stroke-linejoin="round" stroke-dasharray="0.1 8"/>
<line x1="329.753" y1="143.367" x2="610.183" y2="143.367" stroke="#ABE0DE" stroke-width="3" stroke-miterlimit="1.41421" stroke-linecap="round" stroke-linejoin="round" stroke-dasharray="0.1 8"/>
<line x1="329.753" y1="150.497" x2="610.183" y2="150.497" stroke="#ABE0DE" stroke-width="3" stroke-miterlimit="1.41421" stroke-linecap="round" stroke-linejoin="round" stroke-dasharray="0.1 8"/>
<line x1="329.753" y1="157.627" x2="610.183" y2="157.627" stroke="#ABE0DE" stroke-width="3" stroke-miterlimit="1.41421" stroke-linecap="round" stroke-linejoin="round" stroke-dasharray="0.1 8"/>
<line x1="329.753" y1="164.758" x2="610.183" y2="164.758" stroke="#ABE0DE" stroke-width="3" stroke-miterlimit="1.41421" stroke-linecap="round" stroke-linejoin="round" stroke-dasharray="0.1 8"/>
<line x1="329.753" y1="171.888" x2="610.183" y2="171.888" stroke="#ABE0DE" stroke-width="3" stroke-miterlimit="1.41421" stroke-linecap="round" stroke-linejoin="round" stroke-dasharray="0.1 8"/>
<line x1="329.753" y1="179.018" x2="610.183" y2="179.018" stroke="#ABE0DE" stroke-width="3" stroke-miterlimit="1.41421" stroke-linecap="round" stroke-linejoin="round" stroke-dasharray="0.1 8"/>
<line x1="329.753" y1="186.149" x2="610.183" y2="186.149" stroke="#ABE0DE" stroke-width="3" stroke-miterlimit="1.41421" stroke-linecap="round" stroke-linejoin="round" stroke-dasharray="0.1 8"/>
<line x1="329.753" y1="193.279" x2="610.183" y2="193.279" stroke="#ABE0DE" stroke-width="3" stroke-miterlimit="1.41421" stroke-linecap="round" stroke-linejoin="round" stroke-dasharray="0.1 8"/>
<line x1="329.753" y1="200.409" x2="610.183" y2="200.409" stroke="#ABE0DE" stroke-width="3" stroke-miterlimit="1.41421" stroke-linecap="round" stroke-linejoin="round" stroke-dasharray="0.1 8"/>
<line x1="329.753" y1="207.54" x2="610.183" y2="207.54" stroke="#ABE0DE" stroke-width="3" stroke-miterlimit="1.41421" stroke-linecap="round" stroke-linejoin="round" stroke-dasharray="0.1 8"/>
</mask>
<g mask="url(#mask0)">
<path d="M500.544 156.942C562.385 162.647 593.433 106.298 570.003 84.1276C561.426 76.0114 557.534 75.4324 530.047 75.4324C466.936 75.4324 506.521 18.3823 440.776 24.0471C404.668 27.1583 390.008 54.4765 395.236 86.0042C400.464 117.532 423.242 149.81 500.544 156.942Z" fill="#55A1C6"/>
</g>
<path d="M122.5 24C36.5 30.5 -59.3923 99.3881 -83.522 128.179C-79.7189 139.826 -51.3403 160.451 8.14451 163.906C82.5006 168.225 45.5193 223.189 131.678 266.768C200.605 301.631 249.572 228.162 265.44 187.07C287.996 134.853 260.318 13.5836 122.5 24Z" fill="url(#paint0_linear)"/>
<mask id="mask1" mask-type="alpha" maskUnits="userSpaceOnUse" x="-39" y="43" width="182" height="220">
<line x1="-37.5" y1="44.5" x2="141.15" y2="44.5" stroke="#ABE0DE" stroke-width="3" stroke-miterlimit="1.41421" stroke-linecap="round" stroke-linejoin="round" stroke-dasharray="0.1 8"/>
<line x1="-37.5" y1="51.5" x2="141.15" y2="51.5" stroke="#ABE0DE" stroke-width="3" stroke-miterlimit="1.41421" stroke-linecap="round" stroke-linejoin="round" stroke-dasharray="0.1 8"/>
<line x1="-37.5" y1="58.5" x2="141.15" y2="58.5" stroke="#ABE0DE" stroke-width="3" stroke-miterlimit="1.41421" stroke-linecap="round" stroke-linejoin="round" stroke-dasharray="0.1 8"/>
<line x1="-37.5" y1="65.5" x2="141.15" y2="65.5" stroke="#ABE0DE" stroke-width="3" stroke-miterlimit="1.41421" stroke-linecap="round" stroke-linejoin="round" stroke-dasharray="0.1 8"/>
<line x1="-37.5" y1="72.5" x2="141.15" y2="72.5" stroke="#ABE0DE" stroke-width="3" stroke-miterlimit="1.41421" stroke-linecap="round" stroke-linejoin="round" stroke-dasharray="0.1 8"/>
<line x1="-37.5" y1="79.5" x2="141.15" y2="79.5" stroke="#ABE0DE" stroke-width="3" stroke-miterlimit="1.41421" stroke-linecap="round" stroke-linejoin="round" stroke-dasharray="0.1 8"/>
<line x1="-37.5" y1="86.5" x2="141.15" y2="86.5" stroke="#ABE0DE" stroke-width="3" stroke-miterlimit="1.41421" stroke-linecap="round" stroke-linejoin="round" stroke-dasharray="0.1 8"/>
<line x1="-37.5" y1="93.5" x2="141.15" y2="93.5" stroke="#ABE0DE" stroke-width="3" stroke-miterlimit="1.41421" stroke-linecap="round" stroke-linejoin="round" stroke-dasharray="0.1 8"/>
<line x1="-37.5" y1="100.5" x2="141.15" y2="100.5" stroke="#ABE0DE" stroke-width="3" stroke-miterlimit="1.41421" stroke-linecap="round" stroke-linejoin="round" stroke-dasharray="0.1 8"/>
<line x1="-37.5" y1="107.5" x2="141.15" y2="107.5" stroke="#ABE0DE" stroke-width="3" stroke-miterlimit="1.41421" stroke-linecap="round" stroke-linejoin="round" stroke-dasharray="0.1 8"/>
<line x1="-37.5" y1="114.5" x2="141.15" y2="114.5" stroke="#ABE0DE" stroke-width="3" stroke-miterlimit="1.41421" stroke-linecap="round" stroke-linejoin="round" stroke-dasharray="0.1 8"/>
<line x1="-37.5" y1="121.5" x2="141.15" y2="121.5" stroke="#ABE0DE" stroke-width="3" stroke-miterlimit="1.41421" stroke-linecap="round" stroke-linejoin="round" stroke-dasharray="0.1 8"/>
<line x1="-37.5" y1="128.5" x2="141.15" y2="128.5" stroke="#ABE0DE" stroke-width="3" stroke-miterlimit="1.41421" stroke-linecap="round" stroke-linejoin="round" stroke-dasharray="0.1 8"/>
<line x1="-37.5" y1="135.5" x2="141.15" y2="135.5" stroke="#ABE0DE" stroke-width="3" stroke-miterlimit="1.41421" stroke-linecap="round" stroke-linejoin="round" stroke-dasharray="0.1 8"/>
<line x1="-37.5" y1="142.5" x2="141.15" y2="142.5" stroke="#ABE0DE" stroke-width="3" stroke-miterlimit="1.41421" stroke-linecap="round" stroke-linejoin="round" stroke-dasharray="0.1 8"/>
<line x1="-37.5" y1="149.5" x2="141.15" y2="149.5" stroke="#ABE0DE" stroke-width="3" stroke-miterlimit="1.41421" stroke-linecap="round" stroke-linejoin="round" stroke-dasharray="0.1 8"/>
<line x1="-37.5" y1="156.5" x2="141.15" y2="156.5" stroke="#ABE0DE" stroke-width="3" stroke-miterlimit="1.41421" stroke-linecap="round" stroke-linejoin="round" stroke-dasharray="0.1 8"/>
<line x1="-37.5" y1="163.5" x2="141.15" y2="163.5" stroke="#ABE0DE" stroke-width="3" stroke-miterlimit="1.41421" stroke-linecap="round" stroke-linejoin="round" stroke-dasharray="0.1 8"/>
<line x1="-37.5" y1="170.5" x2="141.15" y2="170.5" stroke="#ABE0DE" stroke-width="3" stroke-miterlimit="1.41421" stroke-linecap="round" stroke-linejoin="round" stroke-dasharray="0.1 8"/>
<line x1="-37.5" y1="177.5" x2="141.15" y2="177.5" stroke="#ABE0DE" stroke-width="3" stroke-miterlimit="1.41421" stroke-linecap="round" stroke-linejoin="round" stroke-dasharray="0.1 8"/>
<line x1="-37.5" y1="184.5" x2="141.15" y2="184.5" stroke="#ABE0DE" stroke-width="3" stroke-miterlimit="1.41421" stroke-linecap="round" stroke-linejoin="round" stroke-dasharray="0.1 8"/>
<line x1="-37.5" y1="191.5" x2="141.15" y2="191.5" stroke="#ABE0DE" stroke-width="3" stroke-miterlimit="1.41421" stroke-linecap="round" stroke-linejoin="round" stroke-dasharray="0.1 8"/>
<line x1="-37.5" y1="198.5" x2="141.15" y2="198.5" stroke="#ABE0DE" stroke-width="3" stroke-miterlimit="1.41421" stroke-linecap="round" stroke-linejoin="round" stroke-dasharray="0.1 8"/>
<line x1="-37.5" y1="205.5" x2="141.15" y2="205.5" stroke="#ABE0DE" stroke-width="3" stroke-miterlimit="1.41421" stroke-linecap="round" stroke-linejoin="round" stroke-dasharray="0.1 8"/>
<line x1="-37.5" y1="212.5" x2="141.15" y2="212.5" stroke="#ABE0DE" stroke-width="3" stroke-miterlimit="1.41421" stroke-linecap="round" stroke-linejoin="round" stroke-dasharray="0.1 8"/>
<line x1="-37.5" y1="219.5" x2="141.15" y2="219.5" stroke="#ABE0DE" stroke-width="3" stroke-miterlimit="1.41421" stroke-linecap="round" stroke-linejoin="round" stroke-dasharray="0.1 8"/>
<line x1="-37.5" y1="226.5" x2="141.15" y2="226.5" stroke="#ABE0DE" stroke-width="3" stroke-miterlimit="1.41421" stroke-linecap="round" stroke-linejoin="round" stroke-dasharray="0.1 8"/>
<line x1="-37.5" y1="233.5" x2="141.15" y2="233.5" stroke="#ABE0DE" stroke-width="3" stroke-miterlimit="1.41421" stroke-linecap="round" stroke-linejoin="round" stroke-dasharray="0.1 8"/>
<line x1="-37.5" y1="240.5" x2="141.15" y2="240.5" stroke="#ABE0DE" stroke-width="3" stroke-miterlimit="1.41421" stroke-linecap="round" stroke-linejoin="round" stroke-dasharray="0.1 8"/>
<line x1="-37.5" y1="247.5" x2="141.15" y2="247.5" stroke="#ABE0DE" stroke-width="3" stroke-miterlimit="1.41421" stroke-linecap="round" stroke-linejoin="round" stroke-dasharray="0.1 8"/>
<line x1="-37.5" y1="254.5" x2="141.15" y2="254.5" stroke="#ABE0DE" stroke-width="3" stroke-miterlimit="1.41421" stroke-linecap="round" stroke-linejoin="round" stroke-dasharray="0.1 8"/>
<line x1="-37.5" y1="261.5" x2="141.15" y2="261.5" stroke="#ABE0DE" stroke-width="3" stroke-miterlimit="1.41421" stroke-linecap="round" stroke-linejoin="round" stroke-dasharray="0.1 8"/>
</mask>
<g mask="url(#mask1)">
<circle cx="69.4112" cy="114.411" r="49.4112" fill="#ABE0DE" fill-opacity="0.67"/>
</g>
<mask id="mask2" mask-type="alpha" maskUnits="userSpaceOnUse" x="328" y="183" width="154" height="94">
<line x1="329.5" y1="184.5" x2="480.491" y2="184.5" stroke="#ABE0DE" stroke-width="3" stroke-miterlimit="1.41421" stroke-linecap="round" stroke-linejoin="round" stroke-dasharray="0.1 8"/>
<line x1="329.5" y1="192.048" x2="480.491" y2="192.048" stroke="#ABE0DE" stroke-width="3" stroke-miterlimit="1.41421" stroke-linecap="round" stroke-linejoin="round" stroke-dasharray="0.1 8"/>
<line x1="329.5" y1="199.597" x2="480.491" y2="199.597" stroke="#ABE0DE" stroke-width="3" stroke-miterlimit="1.41421" stroke-linecap="round" stroke-linejoin="round" stroke-dasharray="0.1 8"/>
<line x1="329.5" y1="207.145" x2="480.491" y2="207.145" stroke="#ABE0DE" stroke-width="3" stroke-miterlimit="1.41421" stroke-linecap="round" stroke-linejoin="round" stroke-dasharray="0.1 8"/>
<line x1="329.5" y1="214.694" x2="480.491" y2="214.694" stroke="#ABE0DE" stroke-width="3" stroke-miterlimit="1.41421" stroke-linecap="round" stroke-linejoin="round" stroke-dasharray="0.1 8"/>
<line x1="329.5" y1="222.242" x2="480.491" y2="222.242" stroke="#ABE0DE" stroke-width="3" stroke-miterlimit="1.41421" stroke-linecap="round" stroke-linejoin="round" stroke-dasharray="0.1 8"/>
<line x1="329.5" y1="229.79" x2="480.491" y2="229.79" stroke="#ABE0DE" stroke-width="3" stroke-miterlimit="1.41421" stroke-linecap="round" stroke-linejoin="round" stroke-dasharray="0.1 8"/>
<line x1="329.5" y1="237.339" x2="480.491" y2="237.339" stroke="#ABE0DE" stroke-width="3" stroke-miterlimit="1.41421" stroke-linecap="round" stroke-linejoin="round" stroke-dasharray="0.1 8"/>
<line x1="329.5" y1="244.887" x2="480.491" y2="244.887" stroke="#ABE0DE" stroke-width="3" stroke-miterlimit="1.41421" stroke-linecap="round" stroke-linejoin="round" stroke-dasharray="0.1 8"/>
<line x1="329.5" y1="252.435" x2="480.491" y2="252.435" stroke="#ABE0DE" stroke-width="3" stroke-miterlimit="1.41421" stroke-linecap="round" stroke-linejoin="round" stroke-dasharray="0.1 8"/>
<line x1="329.5" y1="259.984" x2="480.491" y2="259.984" stroke="#ABE0DE" stroke-width="3" stroke-miterlimit="1.41421" stroke-linecap="round" stroke-linejoin="round" stroke-dasharray="0.1 8"/>
<line x1="329.5" y1="267.532" x2="480.491" y2="267.532" stroke="#ABE0DE" stroke-width="3" stroke-miterlimit="1.41421" stroke-linecap="round" stroke-linejoin="round" stroke-dasharray="0.1 8"/>
<line x1="329.5" y1="275.081" x2="480.491" y2="275.081" stroke="#ABE0DE" stroke-width="3" stroke-miterlimit="1.41421" stroke-linecap="round" stroke-linejoin="round" stroke-dasharray="0.1 8"/>
</mask>
<g mask="url(#mask2)">
<path d="M387.981 260.872C366.117 268.43 338.408 253.733 330.849 231.869C323.291 210.005 337.735 185.128 350.283 172.299C362.83 159.471 392.611 134.595 421.266 187.028C449.92 239.461 409.845 253.314 387.981 260.872Z" fill="#55A1C6"/>
</g>
<path d="M-87.8198 104.948C-124.403 152.906 -66.5779 223.662 18.389 223.662C103.356 223.662 91.5 294 172.5 294C253.5 294 320.462 185.166 383.432 185.925C446.403 186.685 438.503 154.084 419.228 125.782C399.953 97.4786 294.459 135.217 259.522 135.217C224.586 135.217 145.851 181.006 95.5 113C45.1487 44.9939 -51.2366 56.9903 -87.8198 104.948Z" fill="url(#paint1_linear)"/>
<path d="M584.053 175.12C584.053 230.047 537.609 293.712 484.307 293.712C431.005 293.712 403.886 223.805 373.962 223.805C336.557 223.805 288.866 250.644 262.059 250.644C235.252 250.644 175 234.863 175 179C175 123.137 225.576 101 255.5 101C285.424 101 287.038 118 330.5 118C373.962 118 399.834 63.7067 467.163 65.5792C534.492 67.4517 584.053 120.194 584.053 175.12Z" fill="url(#paint2_linear)"/>
<path d="M622.129 189.468C704.459 196.998 745.793 122.618 714.601 93.3526C703.182 82.6393 694.593 109.5 658 109.5C573.98 109.5 578 27.5 533 21C485.248 14.1024 464.031 47.277 470.991 88.8937C477.952 130.511 519.216 180.054 622.129 189.468Z" fill="url(#paint3_linear)"/>
<defs>
<linearGradient id="paint0_linear" x1="141" y1="104" x2="36.1289" y2="41.2845" gradientUnits="userSpaceOnUse">
<stop offset="0.0260417" stop-color="#6AB3D0"/>
<stop offset="1" stop-color="#6CBFD6"/>
</linearGradient>
<linearGradient id="paint1_linear" x1="140.5" y1="233" x2="-28.9772" y2="188.912" gradientUnits="userSpaceOnUse">
<stop stop-color="#588FC0"/>
<stop offset="1" stop-color="#60C8E4"/>
</linearGradient>
<linearGradient id="paint2_linear" x1="219.667" y1="168.255" x2="575.638" y2="180.086" gradientUnits="userSpaceOnUse">
<stop stop-color="#55A1C6"/>
<stop offset="1" stop-color="#447EB1"/>
</linearGradient>
<linearGradient id="paint3_linear" x1="495.101" y1="55.1341" x2="522.26" y2="145.792" gradientUnits="userSpaceOnUse">
<stop stop-color="#55A1C6"/>
<stop offset="1" stop-color="#588FC0"/>
</linearGradient>
</defs>
</svg>
