<svg width="119" height="18" viewBox="0 0 119 18" fill="none" xmlns="http://www.w3.org/2000/svg">
<path d="M0.81543 17V1.35938H5.23047C6.59115 1.35938 7.79427 1.66016 8.83984 2.26172C9.88542 2.86328 10.6911 3.71908 11.2568 4.8291C11.8298 5.93913 12.1198 7.21387 12.127 8.65332V9.65234C12.127 11.1276 11.8405 12.4202 11.2676 13.5303C10.7018 14.6403 9.889 15.4925 8.8291 16.0869C7.77637 16.6813 6.54818 16.9857 5.14453 17H0.81543ZM2.87793 3.05664V15.3135H5.04785C6.6377 15.3135 7.87305 14.8193 8.75391 13.8311C9.64193 12.8428 10.0859 11.4355 10.0859 9.60938V8.69629C10.0859 6.92025 9.66699 5.54167 8.8291 4.56055C7.99837 3.57227 6.81673 3.07096 5.28418 3.05664H2.87793ZM22.1172 17C22.0026 16.7708 21.9095 16.3626 21.8379 15.7754C20.9141 16.735 19.8112 17.2148 18.5293 17.2148C17.3835 17.2148 16.4417 16.8926 15.7041 16.248C14.9736 15.5964 14.6084 14.7728 14.6084 13.7773C14.6084 12.5671 15.0667 11.6289 15.9834 10.9629C16.9072 10.2897 18.2035 9.95312 19.8721 9.95312H21.8057V9.04004C21.8057 8.34538 21.598 7.79395 21.1826 7.38574C20.7673 6.97038 20.1549 6.7627 19.3457 6.7627C18.6367 6.7627 18.0423 6.94173 17.5625 7.2998C17.0827 7.65788 16.8428 8.09115 16.8428 8.59961H14.8447C14.8447 8.01953 15.0488 7.46094 15.457 6.92383C15.8724 6.37956 16.431 5.94987 17.1328 5.63477C17.8418 5.31966 18.6188 5.16211 19.4639 5.16211C20.8031 5.16211 21.8522 5.4987 22.6113 6.17188C23.3704 6.83789 23.7643 7.75814 23.793 8.93262V14.2822C23.793 15.3493 23.929 16.1979 24.2012 16.8281V17H22.1172ZM18.8193 15.4854C19.4424 15.4854 20.0332 15.3242 20.5918 15.002C21.1504 14.6797 21.555 14.2607 21.8057 13.7451V11.3604H20.248C17.8132 11.3604 16.5957 12.0729 16.5957 13.498C16.5957 14.1211 16.8034 14.6081 17.2188 14.959C17.6341 15.3099 18.1676 15.4854 18.8193 15.4854ZM29.6045 2.5625V5.37695H31.7744V6.91309H29.6045V14.1211C29.6045 14.5866 29.7012 14.9375 29.8945 15.1738C30.0879 15.403 30.4173 15.5176 30.8828 15.5176C31.112 15.5176 31.4271 15.4746 31.8281 15.3887V17C31.3053 17.1432 30.7969 17.2148 30.3027 17.2148C29.4147 17.2148 28.7451 16.9463 28.2939 16.4092C27.8428 15.8721 27.6172 15.1094 27.6172 14.1211V6.91309H25.501V5.37695H27.6172V2.5625H29.6045ZM36.8018 2.5625V5.37695H38.9717V6.91309H36.8018V14.1211C36.8018 14.5866 36.8984 14.9375 37.0918 15.1738C37.2852 15.403 37.6146 15.5176 38.0801 15.5176C38.3092 15.5176 38.6243 15.4746 39.0254 15.3887V17C38.5026 17.1432 37.9941 17.2148 37.5 17.2148C36.612 17.2148 35.9424 16.9463 35.4912 16.4092C35.04 15.8721 34.8145 15.1094 34.8145 14.1211V6.91309H32.6982V5.37695H34.8145V2.5625H36.8018ZM40.5615 11.0811C40.5615 9.94238 40.7835 8.91829 41.2275 8.00879C41.6787 7.09928 42.3018 6.39746 43.0967 5.90332C43.8988 5.40918 44.8118 5.16211 45.8359 5.16211C47.4186 5.16211 48.6969 5.70996 49.6709 6.80566C50.652 7.90137 51.1426 9.35872 51.1426 11.1777V11.3174C51.1426 12.4489 50.9242 13.4658 50.4873 14.3682C50.0576 15.2633 49.4382 15.9616 48.6289 16.4629C47.8268 16.9642 46.903 17.2148 45.8574 17.2148C44.2819 17.2148 43.0036 16.667 42.0225 15.5713C41.0485 14.4756 40.5615 13.0254 40.5615 11.2207V11.0811ZM42.5596 11.3174C42.5596 12.6064 42.8568 13.6413 43.4512 14.4219C44.0527 15.2025 44.8548 15.5928 45.8574 15.5928C46.8672 15.5928 47.6693 15.1989 48.2637 14.4111C48.8581 13.6162 49.1553 12.5062 49.1553 11.0811C49.1553 9.80632 48.8509 8.77507 48.2422 7.9873C47.6406 7.19238 46.8385 6.79492 45.8359 6.79492C44.8548 6.79492 44.0635 7.18522 43.4619 7.96582C42.8604 8.74642 42.5596 9.86361 42.5596 11.3174ZM53.3877 1.69238L53.1621 5.64551H51.7764L51.7871 0.5H53.3877V1.69238ZM61.9277 13.917C61.9277 13.3799 61.7236 12.9645 61.3154 12.6709C60.9144 12.3701 60.209 12.1123 59.1992 11.8975C58.1966 11.6826 57.3981 11.4248 56.8037 11.124C56.2165 10.8232 55.7796 10.4652 55.4932 10.0498C55.2139 9.63444 55.0742 9.1403 55.0742 8.56738C55.0742 7.61491 55.4753 6.80924 56.2773 6.15039C57.0866 5.49154 58.1178 5.16211 59.3711 5.16211C60.6888 5.16211 61.7559 5.50228 62.5723 6.18262C63.3958 6.86296 63.8076 7.73307 63.8076 8.79297H61.8096C61.8096 8.2487 61.5768 7.77962 61.1113 7.38574C60.653 6.99186 60.0729 6.79492 59.3711 6.79492C58.6478 6.79492 58.082 6.95247 57.6738 7.26758C57.2656 7.58268 57.0615 7.99447 57.0615 8.50293C57.0615 8.98275 57.2513 9.3444 57.6309 9.58789C58.0104 9.83138 58.6943 10.0641 59.6826 10.2861C60.6781 10.5081 61.4837 10.7731 62.0996 11.0811C62.7155 11.389 63.1702 11.7614 63.4639 12.1982C63.7646 12.6279 63.915 13.1543 63.915 13.7773C63.915 14.8158 63.4997 15.6501 62.6689 16.2803C61.8382 16.9033 60.7604 17.2148 59.4355 17.2148C58.5046 17.2148 57.681 17.0501 56.9648 16.7207C56.2487 16.3913 55.6865 15.9329 55.2783 15.3457C54.8773 14.7513 54.6768 14.1104 54.6768 13.4229H56.6641C56.6999 14.0889 56.9648 14.6188 57.459 15.0127C57.9603 15.3994 58.6191 15.5928 59.4355 15.5928C60.1875 15.5928 60.7891 15.4424 61.2402 15.1416C61.6986 14.8337 61.9277 14.4255 61.9277 13.917ZM82.0049 17H71.7568V15.5713L77.1709 9.55566C77.973 8.64616 78.5244 7.90853 78.8252 7.34277C79.1331 6.76986 79.2871 6.17904 79.2871 5.57031C79.2871 4.75391 79.04 4.08431 78.5459 3.56152C78.0518 3.03874 77.3929 2.77734 76.5693 2.77734C75.5811 2.77734 74.8112 3.06022 74.2598 3.62598C73.7155 4.18457 73.4434 4.96517 73.4434 5.96777H71.4561C71.4561 4.52832 71.918 3.36458 72.8418 2.47656C73.7728 1.58854 75.0153 1.14453 76.5693 1.14453C78.0231 1.14453 79.1725 1.52767 80.0176 2.29395C80.8626 3.05306 81.2852 4.06641 81.2852 5.33398C81.2852 6.8737 80.304 8.70703 78.3418 10.834L74.1523 15.3779H82.0049V17ZM93.918 10.3291C93.918 12.6566 93.5205 14.3861 92.7256 15.5176C91.9307 16.6491 90.6882 17.2148 88.998 17.2148C87.3294 17.2148 86.0941 16.6634 85.292 15.5605C84.4899 14.4505 84.0745 12.7962 84.0459 10.5977V7.94434C84.0459 5.64551 84.4434 3.9375 85.2383 2.82031C86.0332 1.70312 87.2793 1.14453 88.9766 1.14453C90.6595 1.14453 91.8984 1.68522 92.6934 2.7666C93.4883 3.84082 93.8965 5.50228 93.918 7.75098V10.3291ZM91.9307 7.61133C91.9307 5.92839 91.6943 4.70378 91.2217 3.9375C90.749 3.16406 90.0007 2.77734 88.9766 2.77734C87.9596 2.77734 87.2184 3.16048 86.7529 3.92676C86.2874 4.69303 86.0475 5.87109 86.0332 7.46094V10.6406C86.0332 12.3307 86.2767 13.5804 86.7637 14.3896C87.2578 15.1917 88.0026 15.5928 88.998 15.5928C89.9792 15.5928 90.7061 15.2132 91.1787 14.4541C91.6585 13.695 91.9092 12.499 91.9307 10.8662V7.61133ZM102.995 17H100.997V3.75488L96.9902 5.22656V3.42188L102.684 1.28418H102.995V17ZM116.434 10.125C116.018 10.6191 115.521 11.0166 114.94 11.3174C114.368 11.6182 113.737 11.7686 113.05 11.7686C112.147 11.7686 111.36 11.5465 110.687 11.1025C110.021 10.6585 109.505 10.0355 109.14 9.2334C108.774 8.42415 108.592 7.53255 108.592 6.55859C108.592 5.51302 108.789 4.57129 109.183 3.7334C109.584 2.89551 110.149 2.25456 110.88 1.81055C111.61 1.36654 112.463 1.14453 113.437 1.14453C114.983 1.14453 116.201 1.72461 117.089 2.88477C117.984 4.03776 118.432 5.61328 118.432 7.61133V8.19141C118.432 11.235 117.83 13.4587 116.627 14.8623C115.424 16.2588 113.608 16.9749 111.181 17.0107H110.794V15.335H111.213C112.853 15.3063 114.113 14.8802 114.994 14.0566C115.875 13.2259 116.355 11.9154 116.434 10.125ZM113.372 10.125C114.038 10.125 114.65 9.9209 115.209 9.5127C115.775 9.10449 116.187 8.59961 116.444 7.99805V7.20312C116.444 5.89974 116.161 4.83984 115.596 4.02344C115.03 3.20703 114.314 2.79883 113.447 2.79883C112.574 2.79883 111.872 3.13542 111.342 3.80859C110.812 4.47461 110.547 5.35547 110.547 6.45117C110.547 7.51823 110.801 8.39909 111.31 9.09375C111.825 9.78125 112.513 10.125 113.372 10.125Z" fill="#FFFEFD"/>
</svg>
