<svg width="391" height="36" viewBox="0 0 391 36" fill="none" xmlns="http://www.w3.org/2000/svg">
<path d="M14.5566 21.2852C14.5566 20.2891 14.2051 19.5273 13.502 19C12.7988 18.4609 11.5332 17.8984 9.70508 17.3125C7.87695 16.7148 6.42969 16.1289 5.36328 15.5547C2.45703 13.9844 1.00391 11.8691 1.00391 9.20898C1.00391 7.82617 1.39062 6.5957 2.16406 5.51758C2.94922 4.42773 4.06836 3.57813 5.52148 2.96875C6.98633 2.35937 8.62695 2.05469 10.4434 2.05469C12.2715 2.05469 13.9004 2.38867 15.3301 3.05664C16.7598 3.71289 17.8672 4.64453 18.6523 5.85156C19.4492 7.05859 19.8477 8.42969 19.8477 9.96484H14.5742C14.5742 8.79297 14.2051 7.88477 13.4668 7.24023C12.7285 6.58398 11.6914 6.25586 10.3555 6.25586C9.06641 6.25586 8.06445 6.53125 7.34961 7.08203C6.63477 7.62109 6.27734 8.33594 6.27734 9.22656C6.27734 10.0586 6.69336 10.7559 7.52539 11.3184C8.36914 11.8809 9.60547 12.4082 11.2344 12.9004C14.2344 13.8027 16.4199 14.9219 17.791 16.2578C19.1621 17.5938 19.8477 19.2578 19.8477 21.25C19.8477 23.4648 19.0098 25.2051 17.334 26.4707C15.6582 27.7246 13.4023 28.3516 10.5664 28.3516C8.59766 28.3516 6.80469 27.9941 5.1875 27.2793C3.57031 26.5527 2.33398 25.5625 1.47852 24.3086C0.634766 23.0547 0.212891 21.6016 0.212891 19.9492H5.50391C5.50391 22.7734 7.19141 24.1855 10.5664 24.1855C11.8203 24.1855 12.7988 23.9336 13.502 23.4297C14.2051 22.9141 14.5566 22.1992 14.5566 21.2852ZM29.1816 4.30469V8.98047H32.4336V12.707H29.1816V22.1992C29.1816 22.9023 29.3164 23.4062 29.5859 23.7109C29.8555 24.0156 30.3711 24.168 31.1328 24.168C31.6953 24.168 32.1934 24.127 32.627 24.0449V27.8945C31.6309 28.1992 30.6055 28.3516 29.5508 28.3516C25.9883 28.3516 24.1719 26.5527 24.1016 22.9551V12.707H21.3242V8.98047H24.1016V4.30469H29.1816ZM46.2852 28C46.0508 27.543 45.8809 26.9746 45.7754 26.2949C44.5449 27.666 42.9453 28.3516 40.9766 28.3516C39.1133 28.3516 37.5664 27.8125 36.3359 26.7344C35.1172 25.6562 34.5078 24.2969 34.5078 22.6562C34.5078 20.6406 35.252 19.0938 36.7402 18.0156C38.2402 16.9375 40.4023 16.3926 43.2266 16.3809H45.5645V15.291C45.5645 14.4121 45.3359 13.709 44.8789 13.1816C44.4336 12.6543 43.7246 12.3906 42.752 12.3906C41.8965 12.3906 41.2227 12.5957 40.7305 13.0059C40.25 13.416 40.0098 13.9785 40.0098 14.6934H34.9297C34.9297 13.5918 35.2695 12.5723 35.9492 11.6348C36.6289 10.6973 37.5898 9.96484 38.832 9.4375C40.0742 8.89844 41.4688 8.62891 43.0156 8.62891C45.3594 8.62891 47.2168 9.2207 48.5879 10.4043C49.9707 11.5762 50.6621 13.2285 50.6621 15.3613V23.6055C50.6738 25.4102 50.9258 26.7754 51.418 27.7012V28H46.2852ZM42.084 24.4668C42.834 24.4668 43.5254 24.3027 44.1582 23.9746C44.791 23.6348 45.2598 23.1836 45.5645 22.6211V19.3516H43.666C41.123 19.3516 39.7695 20.2305 39.6055 21.9883L39.5879 22.2871C39.5879 22.9199 39.8105 23.4414 40.2559 23.8516C40.7012 24.2617 41.3105 24.4668 42.084 24.4668ZM60.6465 4.30469V8.98047H63.8984V12.707H60.6465V22.1992C60.6465 22.9023 60.7812 23.4062 61.0508 23.7109C61.3203 24.0156 61.8359 24.168 62.5977 24.168C63.1602 24.168 63.6582 24.127 64.0918 24.0449V27.8945C63.0957 28.1992 62.0703 28.3516 61.0156 28.3516C57.4531 28.3516 55.6367 26.5527 55.5664 22.9551V12.707H52.7891V8.98047H55.5664V4.30469H60.6465ZM75.4824 28.3516C72.6934 28.3516 70.4199 27.4961 68.6621 25.7852C66.916 24.0742 66.043 21.7949 66.043 18.9473V18.4551C66.043 16.5449 66.4121 14.8398 67.1504 13.3398C67.8887 11.8281 68.9316 10.668 70.2793 9.85938C71.6387 9.03906 73.1855 8.62891 74.9199 8.62891C77.5215 8.62891 79.5664 9.44922 81.0547 11.0898C82.5547 12.7305 83.3047 15.0566 83.3047 18.0684V20.1426H71.1934C71.3574 21.3848 71.8496 22.3809 72.6699 23.1309C73.502 23.8809 74.5508 24.2559 75.8164 24.2559C77.7734 24.2559 79.3027 23.5469 80.4043 22.1289L82.9004 24.9238C82.1387 26.002 81.1074 26.8457 79.8066 27.4551C78.5059 28.0527 77.0645 28.3516 75.4824 28.3516ZM74.9023 12.7422C73.8945 12.7422 73.0742 13.082 72.4414 13.7617C71.8203 14.4414 71.4219 15.4141 71.2461 16.6797H78.3125V16.2754C78.2891 15.1504 77.9844 14.2832 77.3984 13.6738C76.8125 13.0527 75.9805 12.7422 74.9023 12.7422ZM94.3789 18.3145C94.3789 16.4277 94.7422 14.7461 95.4688 13.2695C96.1953 11.793 97.2383 10.6504 98.5977 9.8418C99.9688 9.0332 101.557 8.62891 103.361 8.62891C105.928 8.62891 108.02 9.41406 109.637 10.9844C111.266 12.5547 112.174 14.6875 112.361 17.3828L112.396 18.6836C112.396 21.6016 111.582 23.9453 109.953 25.7148C108.324 27.4727 106.139 28.3516 103.396 28.3516C100.654 28.3516 98.4629 27.4727 96.8223 25.7148C95.1934 23.957 94.3789 21.5664 94.3789 18.543V18.3145ZM99.459 18.6836C99.459 20.4883 99.7988 21.8711 100.479 22.832C101.158 23.7812 102.131 24.2559 103.396 24.2559C104.627 24.2559 105.588 23.7871 106.279 22.8496C106.971 21.9004 107.316 20.3887 107.316 18.3145C107.316 16.5449 106.971 15.1738 106.279 14.2012C105.588 13.2285 104.615 12.7422 103.361 12.7422C102.119 12.7422 101.158 13.2285 100.479 14.2012C99.7988 15.1621 99.459 16.6562 99.459 18.6836ZM116.914 28V12.707H114.084V8.98047H116.914V7.36328C116.914 5.23047 117.523 3.57813 118.742 2.40625C119.973 1.22266 121.689 0.630859 123.893 0.630859C124.596 0.630859 125.457 0.748047 126.477 0.982422L126.424 4.91992C126.002 4.81445 125.486 4.76172 124.877 4.76172C122.967 4.76172 122.012 5.6582 122.012 7.45117V8.98047H125.791V12.707H122.012V28H116.914ZM143.475 4.30469V8.98047H146.727V12.707H143.475V22.1992C143.475 22.9023 143.609 23.4062 143.879 23.7109C144.148 24.0156 144.664 24.168 145.426 24.168C145.988 24.168 146.486 24.127 146.92 24.0449V27.8945C145.924 28.1992 144.898 28.3516 143.844 28.3516C140.281 28.3516 138.465 26.5527 138.395 22.9551V12.707H135.617V8.98047H138.395V4.30469H143.475ZM154.514 11.0547C155.861 9.4375 157.555 8.62891 159.594 8.62891C163.719 8.62891 165.811 11.0254 165.869 15.8184V28H160.789V15.959C160.789 14.8691 160.555 14.0664 160.086 13.5508C159.617 13.0234 158.838 12.7598 157.748 12.7598C156.26 12.7598 155.182 13.334 154.514 14.4824V28H149.434V1H154.514V11.0547ZM178.455 28.3516C175.666 28.3516 173.393 27.4961 171.635 25.7852C169.889 24.0742 169.016 21.7949 169.016 18.9473V18.4551C169.016 16.5449 169.385 14.8398 170.123 13.3398C170.861 11.8281 171.904 10.668 173.252 9.85938C174.611 9.03906 176.158 8.62891 177.893 8.62891C180.494 8.62891 182.539 9.44922 184.027 11.0898C185.527 12.7305 186.277 15.0566 186.277 18.0684V20.1426H174.166C174.33 21.3848 174.822 22.3809 175.643 23.1309C176.475 23.8809 177.523 24.2559 178.789 24.2559C180.746 24.2559 182.275 23.5469 183.377 22.1289L185.873 24.9238C185.111 26.002 184.08 26.8457 182.779 27.4551C181.479 28.0527 180.037 28.3516 178.455 28.3516ZM177.875 12.7422C176.867 12.7422 176.047 13.082 175.414 13.7617C174.793 14.4414 174.395 15.4141 174.219 16.6797H181.285V16.2754C181.262 15.1504 180.957 14.2832 180.371 13.6738C179.785 13.0527 178.953 12.7422 177.875 12.7422ZM205.367 2.40625L211.941 20.9688L218.48 2.40625H225.406V28H220.115V21.0039L220.643 8.92773L213.734 28H210.113L203.223 8.94531L203.75 21.0039V28H198.477V2.40625H205.367ZM243.283 21.2852C243.283 20.2891 242.932 19.5273 242.229 19C241.525 18.4609 240.26 17.8984 238.432 17.3125C236.604 16.7148 235.156 16.1289 234.09 15.5547C231.184 13.9844 229.73 11.8691 229.73 9.20898C229.73 7.82617 230.117 6.5957 230.891 5.51758C231.676 4.42773 232.795 3.57813 234.248 2.96875C235.713 2.35937 237.354 2.05469 239.17 2.05469C240.998 2.05469 242.627 2.38867 244.057 3.05664C245.486 3.71289 246.594 4.64453 247.379 5.85156C248.176 7.05859 248.574 8.42969 248.574 9.96484H243.301C243.301 8.79297 242.932 7.88477 242.193 7.24023C241.455 6.58398 240.418 6.25586 239.082 6.25586C237.793 6.25586 236.791 6.53125 236.076 7.08203C235.361 7.62109 235.004 8.33594 235.004 9.22656C235.004 10.0586 235.42 10.7559 236.252 11.3184C237.096 11.8809 238.332 12.4082 239.961 12.9004C242.961 13.8027 245.146 14.9219 246.518 16.2578C247.889 17.5938 248.574 19.2578 248.574 21.25C248.574 23.4648 247.736 25.2051 246.061 26.4707C244.385 27.7246 242.129 28.3516 239.293 28.3516C237.324 28.3516 235.531 27.9941 233.914 27.2793C232.297 26.5527 231.061 25.5625 230.205 24.3086C229.361 23.0547 228.939 21.6016 228.939 19.9492H234.23C234.23 22.7734 235.918 24.1855 239.293 24.1855C240.547 24.1855 241.525 23.9336 242.229 23.4297C242.932 22.9141 243.283 22.1992 243.283 21.2852ZM257.434 18.9824V28H252.16V2.40625H262.145C264.066 2.40625 265.754 2.75781 267.207 3.46094C268.672 4.16406 269.797 5.16602 270.582 6.4668C271.367 7.75586 271.76 9.22656 271.76 10.8789C271.76 13.3867 270.898 15.3672 269.176 16.8203C267.465 18.2617 265.092 18.9824 262.057 18.9824H257.434ZM257.434 14.7109H262.145C263.539 14.7109 264.6 14.3828 265.326 13.7266C266.064 13.0703 266.434 12.1328 266.434 10.9141C266.434 9.66016 266.064 8.64648 265.326 7.87305C264.588 7.09961 263.568 6.70117 262.268 6.67773H257.434V14.7109ZM293.838 18.6309H289.637V28H284.363V2.40625H293.873C296.896 2.40625 299.229 3.08008 300.869 4.42773C302.51 5.77539 303.33 7.67969 303.33 10.1406C303.33 11.8867 302.949 13.3457 302.188 14.5176C301.438 15.6777 300.295 16.6035 298.76 17.2949L304.297 27.7539V28H298.637L293.838 18.6309ZM289.637 14.3594H293.891C295.215 14.3594 296.24 14.0254 296.967 13.3574C297.693 12.6777 298.057 11.7461 298.057 10.5625C298.057 9.35547 297.711 8.40625 297.02 7.71484C296.34 7.02344 295.291 6.67773 293.873 6.67773H289.637V14.3594ZM315.775 28.3516C312.986 28.3516 310.713 27.4961 308.955 25.7852C307.209 24.0742 306.336 21.7949 306.336 18.9473V18.4551C306.336 16.5449 306.705 14.8398 307.443 13.3398C308.182 11.8281 309.225 10.668 310.572 9.85938C311.932 9.03906 313.479 8.62891 315.213 8.62891C317.814 8.62891 319.859 9.44922 321.348 11.0898C322.848 12.7305 323.598 15.0566 323.598 18.0684V20.1426H311.486C311.65 21.3848 312.143 22.3809 312.963 23.1309C313.795 23.8809 314.844 24.2559 316.109 24.2559C318.066 24.2559 319.596 23.5469 320.697 22.1289L323.193 24.9238C322.432 26.002 321.4 26.8457 320.1 27.4551C318.799 28.0527 317.357 28.3516 315.775 28.3516ZM315.195 12.7422C314.188 12.7422 313.367 13.082 312.734 13.7617C312.113 14.4414 311.715 15.4141 311.539 16.6797H318.605V16.2754C318.582 15.1504 318.277 14.2832 317.691 13.6738C317.105 13.0527 316.273 12.7422 315.195 12.7422ZM343.619 18.666C343.619 21.5957 342.951 23.9453 341.615 25.7148C340.291 27.4727 338.498 28.3516 336.236 28.3516C334.314 28.3516 332.762 27.6836 331.578 26.3477V35.3125H326.498V8.98047H331.209L331.385 10.8438C332.615 9.36719 334.221 8.62891 336.201 8.62891C338.545 8.62891 340.367 9.49609 341.668 11.2305C342.969 12.9648 343.619 15.3555 343.619 18.4023V18.666ZM338.539 18.2969C338.539 16.5273 338.223 15.1621 337.59 14.2012C336.969 13.2402 336.061 12.7598 334.865 12.7598C333.271 12.7598 332.176 13.3691 331.578 14.5879V22.375C332.199 23.6289 333.307 24.2559 334.9 24.2559C337.326 24.2559 338.539 22.2695 338.539 18.2969ZM345.992 18.3145C345.992 16.4277 346.355 14.7461 347.082 13.2695C347.809 11.793 348.852 10.6504 350.211 9.8418C351.582 9.0332 353.17 8.62891 354.975 8.62891C357.541 8.62891 359.633 9.41406 361.25 10.9844C362.879 12.5547 363.787 14.6875 363.975 17.3828L364.01 18.6836C364.01 21.6016 363.195 23.9453 361.566 25.7148C359.938 27.4727 357.752 28.3516 355.01 28.3516C352.268 28.3516 350.076 27.4727 348.436 25.7148C346.807 23.957 345.992 21.5664 345.992 18.543V18.3145ZM351.072 18.6836C351.072 20.4883 351.412 21.8711 352.092 22.832C352.771 23.7812 353.744 24.2559 355.01 24.2559C356.24 24.2559 357.201 23.7871 357.893 22.8496C358.584 21.9004 358.93 20.3887 358.93 18.3145C358.93 16.5449 358.584 15.1738 357.893 14.2012C357.201 13.2285 356.229 12.7422 354.975 12.7422C353.732 12.7422 352.771 13.2285 352.092 14.2012C351.412 15.1621 351.072 16.6562 351.072 18.6836ZM377.826 13.7441C377.135 13.6504 376.525 13.6035 375.998 13.6035C374.076 13.6035 372.816 14.2539 372.219 15.5547V28H367.139V8.98047H371.938L372.078 11.248C373.098 9.50195 374.51 8.62891 376.314 8.62891C376.877 8.62891 377.404 8.70508 377.896 8.85742L377.826 13.7441ZM387.248 4.30469V8.98047H390.5V12.707H387.248V22.1992C387.248 22.9023 387.383 23.4062 387.652 23.7109C387.922 24.0156 388.438 24.168 389.199 24.168C389.762 24.168 390.26 24.127 390.693 24.0449V27.8945C389.697 28.1992 388.672 28.3516 387.617 28.3516C384.055 28.3516 382.238 26.5527 382.168 22.9551V12.707H379.391V8.98047H382.168V4.30469H387.248Z" fill="#FFFEFD"/>
</svg>
